<svg xmlns="http://www.w3.org/2000/svg" viewBox="0 0 1200 800" width="1200" height="800"><defs><linearGradient id="g" x1="0" y1="0" x2="1" y2="1"><stop offset="0" stop-color="#3A2C10"/><stop offset="1" stop-color="#08080c"/></linearGradient><radialGradient id="r" cx="30%" cy="25%" r="70%"><stop offset="0" stop-color="#E9C46A" stop-opacity=".45"/><stop offset="1" stop-color="#E9C46A" stop-opacity="0"/></radialGradient></defs><rect width="100%" height="100%" fill="url(#g)"/><rect width="100%" height="100%" fill="url(#r)"/><line x1="0" y1="0" x2="0" y2="800" stroke="#E9C46A" stroke-opacity=".10"/><line x1="50" y1="0" x2="50" y2="800" stroke="#E9C46A" stroke-opacity=".10"/><line x1="100" y1="0" x2="100" y2="800" stroke="#E9C46A" stroke-opacity=".10"/><line x1="150" y1="0" x2="150" y2="800" stroke="#E9C46A" stroke-opacity=".10"/><line x1="200" y1="0" x2="200" y2="800" stroke="#E9C46A" stroke-opacity=".10"/><line x1="250" y1="0" x2="250" y2="800" stroke="#E9C46A" stroke-opacity=".10"/><line x1="300" y1="0" x2="300" y2="800" stroke="#E9C46A" stroke-opacity=".10"/><line x1="350" y1="0" x2="350" y2="800" stroke="#E9C46A" stroke-opacity=".10"/><line x1="400" y1="0" x2="400" y2="800" stroke="#E9C46A" stroke-opacity=".10"/><line x1="450" y1="0" x2="450" y2="800" stroke="#E9C46A" stroke-opacity=".10"/><line x1="500" y1="0" x2="500" y2="800" stroke="#E9C46A" stroke-opacity=".10"/><line x1="550" y1="0" x2="550" y2="800" stroke="#E9C46A" stroke-opacity=".10"/><line x1="600" y1="0" x2="600" y2="800" stroke="#E9C46A" stroke-opacity=".10"/><line x1="650" y1="0" x2="650" y2="800" stroke="#E9C46A" stroke-opacity=".10"/><line x1="700" y1="0" x2="700" y2="800" stroke="#E9C46A" stroke-opacity=".10"/><line x1="750" y1="0" x2="750" y2="800" stroke="#E9C46A" stroke-opacity=".10"/><line x1="800" y1="0" x2="800" y2="800" stroke="#E9C46A" stroke-opacity=".10"/><line x1="850" y1="0" x2="850" y2="800" stroke="#E9C46A" stroke-opacity=".10"/><line x1="900" y1="0" x2="900" y2="800" stroke="#E9C46A" stroke-opacity=".10"/><line x1="950" y1="0" x2="950" y2="800" stroke="#E9C46A" stroke-opacity=".10"/><line x1="1000" y1="0" x2="1000" y2="800" stroke="#E9C46A" stroke-opacity=".10"/><line x1="1050" y1="0" x2="1050" y2="800" stroke="#E9C46A" stroke-opacity=".10"/><line x1="1100" y1="0" x2="1100" y2="800" stroke="#E9C46A" stroke-opacity=".10"/><line x1="1150" y1="0" x2="1150" y2="800" stroke="#E9C46A" stroke-opacity=".10"/><line x1="1200" y1="0" x2="1200" y2="800" stroke="#E9C46A" stroke-opacity=".10"/><line x1="0" y1="0" x2="1200" y2="0" stroke="#E9C46A" stroke-opacity=".10"/><line x1="0" y1="50" x2="1200" y2="50" stroke="#E9C46A" stroke-opacity=".10"/><line x1="0" y1="100" x2="1200" y2="100" stroke="#E9C46A" stroke-opacity=".10"/><line x1="0" y1="150" x2="1200" y2="150" stroke="#E9C46A" stroke-opacity=".10"/><line x1="0" y1="200" x2="1200" y2="200" stroke="#E9C46A" stroke-opacity=".10"/><line x1="0" y1="250" x2="1200" y2="250" stroke="#E9C46A" stroke-opacity=".10"/><line x1="0" y1="300" x2="1200" y2="300" stroke="#E9C46A" stroke-opacity=".10"/><line x1="0" y1="350" x2="1200" y2="350" stroke="#E9C46A" stroke-opacity=".10"/><line x1="0" y1="400" x2="1200" y2="400" stroke="#E9C46A" stroke-opacity=".10"/><line x1="0" y1="450" x2="1200" y2="450" stroke="#E9C46A" stroke-opacity=".10"/><line x1="0" y1="500" x2="1200" y2="500" stroke="#E9C46A" stroke-opacity=".10"/><line x1="0" y1="550" x2="1200" y2="550" stroke="#E9C46A" stroke-opacity=".10"/><line x1="0" y1="600" x2="1200" y2="600" stroke="#E9C46A" stroke-opacity=".10"/><line x1="0" y1="650" x2="1200" y2="650" stroke="#E9C46A" stroke-opacity=".10"/><line x1="0" y1="700" x2="1200" y2="700" stroke="#E9C46A" stroke-opacity=".10"/><line x1="0" y1="750" x2="1200" y2="750" stroke="#E9C46A" stroke-opacity=".10"/><line x1="0" y1="800" x2="1200" y2="800" stroke="#E9C46A" stroke-opacity=".10"/><rect x="850" y="350" width="150" height="100" fill="#E9C46A" fill-opacity="0.18" rx="6"/><rect x="1050" y="150" width="50" height="100" fill="#E9C46A" fill-opacity="0.1" rx="6"/><rect x="600" y="200" width="100" height="100" fill="#E9C46A" fill-opacity="0.1" rx="6"/><rect x="200" y="500" width="150" height="100" fill="#E9C46A" fill-opacity="0.18" rx="6"/><rect x="650" y="550" width="100" height="100" fill="#E9C46A" fill-opacity="0.1" rx="6"/><rect x="200" y="300" width="100" height="50" fill="#E9C46A" fill-opacity="0.1" rx="6"/><rect x="550" y="600" width="150" height="100" fill="#E9C46A" fill-opacity="0.18" rx="6"/><rect x="700" y="600" width="100" height="50" fill="#E9C46A" fill-opacity="0.18" rx="6"/><rect x="650" y="200" width="150" height="50" fill="#E9C46A" fill-opacity="0.18" rx="6"/><rect x="150" y="250" width="100" height="50" fill="#E9C46A" fill-opacity="0.28" rx="6"/><rect x="450" y="400" width="100" height="100" fill="#E9C46A" fill-opacity="0.1" rx="6"/><rect x="350" y="450" width="100" height="100" fill="#E9C46A" fill-opacity="0.1" rx="6"/><rect x="750" y="500" width="100" height="100" fill="#E9C46A" fill-opacity="0.18" rx="6"/><rect x="700" y="250" width="50" height="50" fill="#E9C46A" fill-opacity="0.1" rx="6"/><rect x="1" y="1" width="1198" height="798" fill="none" stroke="#ffffff" stroke-opacity=".07"/></svg>